<svg xmlns="http://www.w3.org/2000/svg" xmlns:xlink="http://www.w3.org/1999/xlink" width="500" zoomAndPan="magnify" viewBox="0 0 375 374.999991" height="500" preserveAspectRatio="xMidYMid meet" version="1.0"><defs><g/></defs><g fill="#6ca5a0" fill-opacity="1"><g transform="translate(3.956342, 363.467229)"><g><path d="M 155.515625 1.515625 L 134.8125 -0.5 L 124.71875 1.015625 L 63.109375 0 L 53.015625 1.015625 L 42.921875 -4.046875 L 37.875 -19.6875 L 37.875 -45.4375 L 36.859375 -55.03125 L 37.359375 -337.296875 L 41.90625 -347.90625 L 53.015625 -352.453125 L 63.109375 -351.9375 L 72.203125 -353.453125 L 187.328125 -352.453125 L 217.125 -347.90625 L 227.734375 -345.375 L 236.3125 -341.34375 L 246.40625 -339.3125 L 256 -333.765625 L 281.75 -316.59375 L 308.515625 -286.796875 L 325.6875 -260.046875 L 329.71875 -250.453125 L 336.28125 -231.265625 L 343.359375 -191.375 L 343.859375 -176.734375 L 342.34375 -160.5625 L 342.34375 -149.96875 L 340.828125 -139.875 L 337.796875 -131.28125 L 335.78125 -120.6875 L 333.265625 -111.09375 L 325.1875 -91.390625 L 319.125 -83.3125 L 314.078125 -73.21875 L 289.328125 -41.40625 L 255.5 -18.6875 L 231.765625 -8.578125 L 211.0625 -5.046875 L 196.421875 -0.5 L 186.328125 -0.5 L 170.671875 1.515625 Z M 133.296875 -33.328125 L 184.296875 -34.328125 L 194.90625 -35.84375 L 205.515625 -39.390625 L 215.109375 -40.390625 L 231.765625 -47.46875 L 265.09375 -71.703125 L 271.65625 -78.765625 L 276.203125 -86.84375 L 283.265625 -95.4375 L 287.8125 -103.515625 L 295.890625 -122.703125 L 300.9375 -140.875 L 305.484375 -176.21875 L 303.96875 -198.953125 L 301.953125 -209.546875 L 292.859375 -238.828125 L 288.3125 -247.921875 L 265.09375 -281.25 L 245.40625 -295.890625 L 224.1875 -308.015625 L 204.5 -313.5625 L 195.40625 -315.578125 L 154.515625 -319.125 L 143.40625 -317.609375 L 127.75 -318.109375 L 118.65625 -317.09375 L 103 -319.125 L 93.921875 -319.125 L 83.3125 -313.0625 L 77.25 -302.453125 L 77.765625 -293.375 L 76.25 -278.21875 L 77.25 -267.109375 L 77.25 -242.375 L 78.265625 -231.265625 L 76.25 -212.578125 L 78.265625 -49.484375 L 82.8125 -38.875 L 92.90625 -34.84375 L 102 -33.828125 L 113.609375 -35.34375 L 123.703125 -34.84375 Z M 103.515625 -44.9375 L 94.421875 -51 L 88.875 -66.140625 L 88.359375 -79.78125 L 89.375 -89.875 L 87.859375 -110.578125 L 88.359375 -121.6875 L 87.859375 -131.28125 L 88.875 -140.875 L 87.859375 -150.96875 L 88.359375 -292.359375 L 93.921875 -301.453125 L 103.515625 -307 L 185.3125 -306.5 L 195.921875 -304.984375 L 206.015625 -302.96875 L 233.28125 -291.859375 L 249.9375 -279.734375 L 257.015625 -273.171875 L 274.6875 -248.9375 L 288.3125 -220.15625 L 290.34375 -210.5625 L 291.34375 -200.453125 L 293.375 -190.859375 L 293.875 -176.734375 L 289.328125 -139.359375 L 284.78125 -121.1875 L 279.234375 -113.109375 L 275.1875 -104.515625 L 270.140625 -95.4375 L 263.578125 -87.859375 L 258.015625 -79.28125 L 249.4375 -73.21875 L 242.375 -66.65625 L 234.296875 -61.09375 L 194.40625 -46.453125 L 184.296875 -45.4375 L 169.15625 -46.953125 L 154.515625 -44.9375 L 143.90625 -46.453125 L 128.25 -44.9375 L 113.109375 -45.953125 Z M 154 -81.296875 L 169.15625 -81.796875 L 190.859375 -84.328125 L 205.515625 -88.875 L 222.671875 -99.984375 L 241.359375 -121.1875 L 249.9375 -139.875 L 255 -175.21875 L 246.921875 -219.640625 L 242.375 -228.734375 L 237.328125 -237.328125 L 229.75 -246.40625 L 222.171875 -253.484375 L 214.59375 -259.03125 L 205.515625 -263.578125 L 185.8125 -269.125 L 171.171875 -270.640625 L 149.96875 -270.140625 L 133.8125 -266.609375 L 128.765625 -255 L 127.75 -246.40625 L 128.765625 -176.734375 L 126.734375 -151.484375 L 128.765625 -126.734375 L 128.25 -106.03125 L 128.765625 -97.453125 L 132.796875 -87.859375 L 144.40625 -82.3125 Z M 154 -81.296875 "/></g></g></g></svg>